<?xml version="1.0" encoding="utf-8"?>
<!-- Generator: Adobe Illustrator 23.1.0, SVG Export Plug-In . SVG Version: 6.00 Build 0)  -->
<svg version="1.1" id="Layer_1" xmlns="http://www.w3.org/2000/svg" xmlns:xlink="http://www.w3.org/1999/xlink" x="0px" y="0px"
	 viewBox="0 0 1000 630" style="enable-background:new 0 0 1000 630;" xml:space="preserve">
<style type="text/css">
	.st0{fill:#005293;}
</style>
<g>
	<g>
		<g>
			<path class="st0" d="M53.8,443.76c0.31,0.31,0.47,0.74,0.47,1.29v15.35c0,0.55-0.16,0.98-0.47,1.29
				c-0.31,0.31-0.74,0.47-1.29,0.47H38.68c-0.47,0-0.7,0.23-0.7,0.7v60.71c0,0.55-0.16,0.98-0.47,1.29
				c-0.31,0.31-0.74,0.47-1.29,0.47H17.7c-0.55,0-0.98-0.16-1.29-0.47c-0.31-0.31-0.47-0.74-0.47-1.29v-60.71
				c0-0.47-0.23-0.7-0.7-0.7H1.76c-0.55,0-0.98-0.16-1.29-0.47C0.16,461.38,0,460.95,0,460.41v-15.35c0-0.55,0.16-0.98,0.47-1.29
				c0.31-0.31,0.74-0.47,1.29-0.47h50.75C53.05,443.29,53.48,443.45,53.8,443.76z"/>
			<path class="st0" d="M88.72,443.76c0.31-0.31,0.74-0.47,1.29-0.47h18.52c0.55,0,0.98,0.16,1.29,0.47
				c0.31,0.31,0.47,0.74,0.47,1.29v78.53c0,0.55-0.16,0.98-0.47,1.29c-0.31,0.31-0.74,0.47-1.29,0.47H90.01
				c-0.55,0-0.98-0.16-1.29-0.47c-0.31-0.31-0.47-0.74-0.47-1.29V494.4c0-0.47-0.23-0.7-0.7-0.7h-5.39c-0.47,0-0.7,0.24-0.7,0.7
				v29.18c0,0.55-0.16,0.98-0.47,1.29c-0.31,0.31-0.74,0.47-1.29,0.47H61.18c-0.55,0-0.98-0.16-1.29-0.47
				c-0.31-0.31-0.47-0.74-0.47-1.29v-78.53c0-0.55,0.16-0.98,0.47-1.29c0.31-0.31,0.74-0.47,1.29-0.47H79.7
				c0.55,0,0.98,0.16,1.29,0.47c0.31,0.31,0.47,0.74,0.47,1.29v29.07c0,0.47,0.24,0.7,0.7,0.7h5.39c0.47,0,0.7-0.23,0.7-0.7v-29.07
				C88.25,444.51,88.41,444.08,88.72,443.76z"/>
			<path class="st0" d="M162.8,461.7c-0.31,0.31-0.74,0.47-1.29,0.47h-22.39c-0.47,0-0.7,0.23-0.7,0.7v11.25
				c0,0.47,0.23,0.7,0.7,0.7h11.6c0.54,0,0.97,0.16,1.29,0.47c0.31,0.31,0.47,0.74,0.47,1.29v15.35c0,0.55-0.16,0.98-0.47,1.29
				c-0.31,0.31-0.74,0.47-1.29,0.47h-11.6c-0.47,0-0.7,0.24-0.7,0.7v11.37c0,0.47,0.23,0.7,0.7,0.7h22.39
				c0.55,0,0.98,0.16,1.29,0.47c0.31,0.31,0.47,0.74,0.47,1.29v15.35c0,0.55-0.16,0.98-0.47,1.29c-0.31,0.31-0.74,0.47-1.29,0.47
				h-43.36c-0.55,0-0.98-0.16-1.29-0.47c-0.31-0.31-0.47-0.74-0.47-1.29v-78.53c0-0.55,0.16-0.98,0.47-1.29
				c0.31-0.31,0.74-0.47,1.29-0.47h43.36c0.55,0,0.98,0.16,1.29,0.47c0.31,0.31,0.47,0.74,0.47,1.29v15.35
				C163.26,460.95,163.11,461.38,162.8,461.7z"/>
			<path class="st0" d="M251.08,624.2l-2.9-19.78c0-0.35-0.18-0.7-0.53-1.05c-0.36-0.35-0.79-0.53-1.32-0.53h-23.2
				c-0.53,0-0.97,0.18-1.32,0.53c-0.35,0.35-0.53,0.71-0.53,1.05l-2.64,19.78c-0.18,2.46-1.58,3.69-4.22,3.69h-41.4
				c-2.81,0-3.95-1.4-3.43-4.22l37.45-176.95c0.53-2.28,2.02-3.43,4.48-3.43h47.99c2.46,0,3.96,1.15,4.48,3.43l37.45,176.95v1.06
				c0,2.11-1.23,3.16-3.69,3.16H255.3C252.66,627.89,251.25,626.66,251.08,624.2z M228.4,564.87h12.39c1.23,0,1.67-0.53,1.32-1.58
				l-7.12-47.47c-0.18-0.7-0.44-1.05-0.79-1.05s-0.62,0.36-0.79,1.05l-6.33,47.47C227.08,564.34,227.52,564.87,228.4,564.87z"/>
			<path class="st0" d="M389.79,444.35c0.7-0.7,1.67-1.06,2.9-1.06h41.14c1.23,0,2.2,0.36,2.9,1.06c0.7,0.7,1.05,1.67,1.05,2.9
				v176.69c0,1.23-0.35,2.2-1.05,2.9c-0.7,0.71-1.67,1.05-2.9,1.05h-46.94c-2.29,0-3.69-1.14-4.22-3.43l-20.04-79.9
				c-0.18-0.53-0.53-0.79-1.05-0.79c-0.53,0-0.79,0.36-0.79,1.05l0.53,79.11c0,1.23-0.36,2.2-1.06,2.9c-0.7,0.71-1.67,1.05-2.9,1.05
				h-41.14c-1.23,0-2.2-0.35-2.9-1.05c-0.7-0.7-1.05-1.67-1.05-2.9V447.25c0-1.23,0.35-2.2,1.05-2.9c0.7-0.7,1.67-1.06,2.9-1.06
				h46.41c2.28,0,3.69,1.15,4.22,3.43l20.3,80.17c0.17,0.7,0.53,1.05,1.05,1.05c0.53,0,0.79-0.35,0.79-1.05l-0.26-79.64
				C388.73,446.02,389.08,445.05,389.79,444.35z"/>
			<path class="st0" d="M452.55,626.84c-0.7-0.7-1.05-1.67-1.05-2.9V447.25c0-1.23,0.35-2.2,1.05-2.9c0.7-0.7,1.67-1.06,2.9-1.06
				h51.95c11.6,0,21.84,2.2,30.72,6.6c8.87,4.39,15.78,10.59,20.7,18.59c4.92,8,7.38,17.19,7.38,27.56v79.11
				c0,10.37-2.46,19.56-7.38,27.56c-4.92,8-11.83,14.2-20.7,18.59c-8.88,4.4-19.12,6.59-30.72,6.59h-51.95
				C454.22,627.89,453.25,627.54,452.55,626.84z M502.66,585.44l3.69-0.27c2.81-0.17,5.18-1.49,7.12-3.95
				c1.93-2.46,2.99-5.62,3.16-9.49V499.2c0-4.04-0.97-7.29-2.9-9.76c-1.94-2.46-4.48-3.69-7.65-3.69h-3.43
				c-1.05,0-1.58,0.53-1.58,1.58v96.52C501.07,584.91,501.6,585.44,502.66,585.44z"/>
			<path class="st0" d="M646.64,624.46l-16.09-66.19c-0.36-0.88-0.7-1.32-1.05-1.32c-0.7,0-1.06,0.53-1.06,1.58v65.4
				c0,1.23-0.35,2.2-1.05,2.9c-0.7,0.71-1.67,1.05-2.9,1.05h-41.66c-1.23,0-2.2-0.35-2.9-1.05c-0.7-0.7-1.05-1.67-1.05-2.9V447.25
				c0-1.23,0.35-2.2,1.05-2.9c0.7-0.7,1.67-1.06,2.9-1.06h59.33c10.55,0,19.91,2.51,28.08,7.52c8.18,5.01,14.54,11.96,19.12,20.84
				c4.57,8.88,6.86,19.03,6.86,30.46c0,9.67-1.67,18.33-5.01,25.98c-3.34,7.65-8.18,13.85-14.51,18.59
				c-0.7,0.53-0.97,1.23-0.79,2.11l21.36,74.63c0.17,0.36,0.26,0.79,0.26,1.32c0,2.11-1.23,3.16-3.69,3.16h-42.98
				C648.57,627.89,647.16,626.75,646.64,624.46z M630.02,485.75c-1.05,0-1.58,0.53-1.58,1.58v30.33c0,1.05,0.53,1.58,1.58,1.58h3.43
				c3.87,0,7.03-1.45,9.49-4.35c2.46-2.9,3.69-6.99,3.69-12.26c0-5.45-1.19-9.62-3.56-12.53c-2.37-2.9-5.58-4.35-9.62-4.35H630.02z"
				/>
			<path class="st0" d="M812.51,484.7c-0.7,0.7-1.67,1.05-2.9,1.05h-50.37c-1.05,0-1.58,0.53-1.58,1.58v25.32
				c0,1.05,0.53,1.58,1.58,1.58h26.11c1.23,0,2.2,0.36,2.9,1.06c0.7,0.7,1.05,1.67,1.05,2.9v34.55c0,1.23-0.35,2.2-1.05,2.9
				c-0.7,0.7-1.67,1.05-2.9,1.05h-26.11c-1.05,0-1.58,0.53-1.58,1.58v25.58c0,1.05,0.53,1.58,1.58,1.58h50.37
				c1.23,0,2.2,0.35,2.9,1.05c0.7,0.71,1.05,1.67,1.05,2.9v34.55c0,1.23-0.35,2.2-1.05,2.9c-0.7,0.71-1.67,1.05-2.9,1.05h-97.57
				c-1.23,0-2.2-0.35-2.9-1.05c-0.7-0.7-1.05-1.67-1.05-2.9V447.25c0-1.23,0.35-2.2,1.05-2.9c0.7-0.7,1.67-1.06,2.9-1.06h97.57
				c1.23,0,2.2,0.36,2.9,1.06c0.7,0.7,1.05,1.67,1.05,2.9v34.55C813.56,483.03,813.21,484,812.51,484.7z"/>
			<path class="st0" d="M826.22,626.84c-0.7-0.7-1.05-1.67-1.05-2.9V447.25c0-1.23,0.35-2.2,1.05-2.9c0.7-0.7,1.67-1.06,2.9-1.06
				h41.66c1.23,0,2.2,0.36,2.9,1.06c0.7,0.7,1.05,1.67,1.05,2.9v176.69c0,1.23-0.35,2.2-1.05,2.9c-0.7,0.71-1.67,1.05-2.9,1.05
				h-41.66C827.88,627.89,826.92,627.54,826.22,626.84z"/>
			<path class="st0" d="M914.03,623.67c-8.44-4.22-14.99-10.06-19.65-17.53c-4.66-7.47-6.99-16.04-6.99-25.71v-8.18
				c0-1.23,0.35-2.2,1.05-2.9c0.7-0.7,1.67-1.05,2.9-1.05h41.14c1.23,0,2.2,0.36,2.9,1.05c0.7,0.7,1.05,1.67,1.05,2.9v5.8
				c0,2.81,0.7,5.1,2.11,6.86c1.4,1.76,3.16,2.64,5.28,2.64c2.11,0,3.86-0.79,5.27-2.37c1.41-1.58,2.11-3.6,2.11-6.06
				c0-2.99-1.41-5.94-4.22-8.84c-2.81-2.9-8.7-7.52-17.67-13.84c-8.79-6.15-16.04-11.78-21.76-16.88
				c-5.71-5.1-10.68-11.51-14.9-19.25c-4.22-7.73-6.33-16.61-6.33-26.64c0-10.37,2.33-19.51,6.99-27.42
				c4.65-7.91,11.25-14.06,19.78-18.46c8.53-4.39,18.33-6.59,29.4-6.59c11.25,0,21.14,2.2,29.67,6.59
				c8.53,4.4,15.12,10.55,19.78,18.46c4.66,7.91,6.99,17.05,6.99,27.42v5.8c0,1.23-0.36,2.2-1.06,2.9c-0.7,0.7-1.67,1.05-2.9,1.05
				h-40.87c-1.23,0-2.2-0.35-2.9-1.05c-0.71-0.7-1.06-1.67-1.06-2.9v-6.86c0-2.64-0.7-4.79-2.11-6.46c-1.41-1.67-3.26-2.5-5.54-2.5
				c-2.29,0-4.09,0.88-5.41,2.63c-1.32,1.76-1.98,4.13-1.98,7.12c0,3.52,1.41,6.9,4.22,10.15c2.81,3.26,8.44,7.96,16.88,14.11
				c11.25,8.27,19.73,14.94,25.45,20.04c5.71,5.1,10.2,10.86,13.45,17.27c3.25,6.42,4.88,13.93,4.88,22.55
				c0,16-5.19,28.75-15.56,38.24c-10.37,9.49-24,14.24-40.88,14.24C932.31,630,922.47,627.89,914.03,623.67z"/>
		</g>
	</g>
	<g>
		<g>
			<path class="st0" d="M489.62,75.72c0,0,33.01-22.85,99.02-17.77s63.48,8.89,76.17,26.66s20.31,55.86,20.31,72.36
				c6.66-11.43,7.62-32.37,6.66-47.61s-5.08-15.87-4.13-20.95s7.62-13.33,14.28-11.74c0-16.82-17.14-31.74-32.37-36.5
				c-4.44-18.73-25.07-31.42-40.94-35.55s-64.75-7.93-107.59,0s-71.09,44.43-73.31,63.16c-15.55,13.33-27.74,19.76-33.45,42.3
				s1.39,60.22,3.93,72.6c10.7-5.48,30.07,5.94,40.62,41.89c1.9,1.59,6.98,1.59,6.98,1.59s7.93-27.93,2.22-58.71
				C484.23,126.5,465.82,105.87,489.62,75.72z"/>
			<path class="st0" d="M697.82,170.51c-14.39-1.69-29.13-3.36-49.09,2.12c-10.48,2.87-18.1,8.89-18.1,8.89h-14.48
				c-2.3-1.83-13.96-8.89-40.2-8.89c-26.24,0-49.93,7.19-49.93,7.19l-76.17,1.69l8.28,10.05c0,0,51.39,0.53,60.28,0.32
				c2.54,2.96,5.5,3.17,5.5,3.17s1.27,14.39,2.33,21.79c1.06,7.41,4.87,14.39,14.18,17.56c9.31,3.17,41.05,1.27,48.88,0
				s9.31-5.71,14.39-12.48c5.08-6.77,8.45-24.74,11.85-28.78c3.41-4.05,9.92-3.24,12.7-0.85c2.98,2.57,4.23,13.54,10.16,25.18
				c5.92,11.64,9.52,11.64,16.5,12.48c6.98,0.85,26.24,1.69,36.6,0s13.9-6.77,16.08-12.7c1.64-4.47,3.39-19.25,2.96-25.6
				c0.29-2.05,2.01-3.7,3.03-4.52c0.49-0.39,0.77-0.98,0.77-1.6v-8.65c0-0.89-0.44-1.74-1.18-2.23
				C711.39,173.5,707.23,171.62,697.82,170.51z M608.32,194.63c-3.29,1.42-6.14,7.83-8.04,12.7c-1.9,4.87-1.9,12.06-2.96,15.45
				c-1.06,3.39-3.17,6.56-8.04,7.62s-26.66,2.96-40.41,1.69c-13.75-1.27-16.72-8.25-17.77-11.85c-1.06-3.6-2.12-21.79-2.54-26.24
				c-0.42-4.44,0-9.73,5.71-11.43c18.67-5.53,27.09-6.02,39.99-6.35c26.31-0.68,31.71,6.07,34.07,8.46
				C610.68,187.09,611.46,193.28,608.32,194.63z M706.29,195.9c-0.63,9.73-2.16,17.29-3.44,21.09c-1.8,5.35-6.46,8.45-11.58,9.17
				c-8,1.13-28.56,2.12-37.45,0s-11.21-9.73-11.21-9.73s-6.84-17.87-8.46-25.39c-0.89-4.14,0.52-6.1,2.35-7.69
				c2.19-1.91,13.12-8.32,35.86-9.03c18.29-0.57,28.23,2.12,31.61,3.81C707.34,179.82,706.92,186.17,706.29,195.9z"/>
			<path class="st0" d="M611.94,257.08L611.94,257.08c-2.69,1.4-4.43,4.09-4.69,7.11c-0.18,2.14-0.66,4.46-1.79,5.69
				c-2.44,2.64-9.55,7.73-22.57,8.34c-13.01,0.61-15.86,10.16-16.26,15.65c-0.25,3.43,0.65,6.31,1.36,7.98
				c0.38,0.9,1.42,1.33,2.34,0.97l7.61-2.96c0.73-0.28,1.2-1,1.16-1.78c-0.12-2.32,0.18-7,4.6-7.46c5.9-0.61,27.04-1.22,34.97-10.37
				c0,0,1.52-3.69,5.79-3.89c3.39-0.16,5.39,1.25,6.41,3.89c1.02,2.64,7.73,0.41,12.6,2.03c3.47,1.16,4.88,4.37,5.41,6.13
				c0.23,0.75,0.84,1.33,1.6,1.53l6.66,1.7c1.27,0.32,2.52-0.62,2.54-1.94c0.07-4.32-0.68-12.91-7.27-15.75
				c-8.95-3.86-11.18,0.2-14.03-4.68c-2.09-3.59-3.2-8.5-3.64-10.85c-0.15-0.78-0.83-1.35-1.63-1.35h-21.14
				C611.97,257.06,611.95,257.07,611.94,257.08z"/>
			<path class="st0" d="M680.68,268.69c0,0-5.71,18.99-14.6,34.25c-8.89,15.26-6.98,24.78-13.33,33.03s-14.6,11.43-36.18,11.43
				c-21.58,0-39.12-2.54-49.39-12.06c-10.27-9.52-22.33-6.35-22.33-6.35s3.17-29.2-8.89-37.45s-19.68,6.98-28.56-0.63
				s2.54-24.12-35.55-50.15c-5.08-4.61-6.03-14.6-6.03-14.6l-6.98-1.59c0,0-2.86,30.15,2.86,49.83s7.62,33.01,14.6,39.99
				c6.98,6.98,31.92,22.85,52.14,29.2c20.22,6.35,26.57,17.14,32.28,24.12c5.71,6.98,20.98,17.14,53.02,15.23
				s37.75-12.7,42.19-19.68c4.44-6.98,1.27-16.5,7.62-24.76c6.35-8.25,20.95-24.76,20.95-47.61
				C684.49,268.05,680.68,268.69,680.68,268.69z"/>
			<path class="st0" d="M604,165.41c0.24-0.5,0.49-1.02,0.7-1.51c0.6-1.35,0.13-2.93-1.11-3.74c-4.35-2.83-15.57-8.76-33.47-9.06
				c-22.54-0.37-42.63,9.97-50.63,15.82c-0.61,0.45-0.78,1.29-0.38,1.93c0.51,0.83,1.11,1.59,1.6,2.15
				c0.48,0.55,1.29,0.67,1.91,0.26c3.94-2.62,20.37-13.65,43.06-12.81c16.21,0.6,29.42,6.78,34.71,8.49
				C601.81,167.41,603.34,166.75,604,165.41z"/>
			<path class="st0" d="M632.96,165.92c0,0,18.22-14.83,35.49-11.7c16.26,2.95,16.79,11.7,16.79,11.7l-1.07,3.05
				c-0.16,0.45-0.7,0.63-1.09,0.35c-2.56-1.81-10.21-7.87-19.02-8.03c-10.53-0.19-16.54,2.03-29.38,8.59
				C632.96,169.89,632.96,165.92,632.96,165.92z"/>
			<path class="st0" d="M442.16,202.16c0,0-13.33-18.35-21.07-15.37c-3.7,1.42,0,9.68,0,15.37c0,5.69,0,13,1.71,17.89
				c1.71,4.89,2.28,0,2.28,0s-2.28-3.94-0.28-7.07c1.99-3.13,3.42-11.31,1.14-14.48c-2.28-3.17-1.42-5.73,0-5.45
				c1.42,0.28,7.97,0.17,8.54,3.22C435.04,199.31,442.16,202.16,442.16,202.16z"/>
			<path class="st0" d="M441.12,205.81c0,0,4.3,1.93,4.08,6.01c-0.21,4.08-1.7,9.23,0.01,12.35c1.71,3.12,5.36,6.98,4.5,8.92
				c-0.86,1.93-2.15-3.44-7.09-3.22c-4.94,0.21-6.01-1.72-6.01-4.08s-4.3-1.3-3.22-6.13c1.07-4.83,1.5-4.61,4.08-8.05
				C440.05,208.17,441.12,205.81,441.12,205.81z"/>
		</g>
	</g>
</g>
</svg>
